<svg width="203" height="58" viewBox="0 0 203 58" fill="none" xmlns="http://www.w3.org/2000/svg">
<rect x="1.125" y="1.23125" width="200.925" height="55.925" fill="white"/>
<rect x="1.125" y="1.23125" width="200.925" height="55.925" stroke="black"/>
<path d="M19.5381 21.1004C21.2346 21.1004 22.7171 21.4366 23.9856 22.1091C25.2541 22.7816 26.2322 23.7291 26.92 24.9518C27.623 26.1592 27.9745 27.5576 27.9745 29.1471C27.9745 30.7213 27.623 32.1197 26.92 33.3424C26.2322 34.565 25.2464 35.5126 23.9626 36.1851C22.6941 36.8575 21.2193 37.1938 19.5381 37.1938H13.5088V21.1004H19.5381ZM19.2859 33.8009C20.7684 33.8009 21.9223 33.3958 22.7476 32.5858C23.5729 31.7758 23.9856 30.6296 23.9856 29.1471C23.9856 27.6646 23.5729 26.5107 22.7476 25.6854C21.9223 24.8601 20.7684 24.4475 19.2859 24.4475H17.429V33.8009H19.2859ZM42.2238 30.5914C42.2238 30.9582 42.2009 31.3402 42.1551 31.7376H33.2831C33.3442 32.5323 33.5964 33.1437 34.0396 33.5716C34.4981 33.9843 35.056 34.1906 35.7131 34.1906C36.6913 34.1906 37.3714 33.7779 37.7535 32.9526H41.9258C41.7119 33.7932 41.3221 34.5497 40.7566 35.2222C40.2064 35.8947 39.511 36.4219 38.6705 36.804C37.8299 37.1861 36.89 37.3772 35.8507 37.3772C34.5975 37.3772 33.4818 37.1097 32.5036 36.5748C31.5255 36.0399 30.7613 35.2757 30.2111 34.2823C29.6609 33.2889 29.3858 32.1273 29.3858 30.7977C29.3858 29.468 29.6533 28.3065 30.1882 27.3131C30.7384 26.3197 31.5026 25.5555 32.4807 25.0206C33.4588 24.4857 34.5822 24.2182 35.8507 24.2182C37.0886 24.2182 38.189 24.478 39.1519 24.9977C40.1147 25.5173 40.8636 26.2585 41.3985 27.2214C41.9487 28.1842 42.2238 29.3076 42.2238 30.5914ZM38.212 29.5597C38.212 28.8873 37.9827 28.3523 37.5242 27.955C37.0657 27.5576 36.4926 27.3589 35.8048 27.3589C35.1477 27.3589 34.5898 27.55 34.1313 27.9321C33.6881 28.3141 33.413 28.8567 33.306 29.5597H38.212ZM49.4959 37.3772C48.3802 37.3772 47.3868 37.1861 46.5157 36.804C45.6445 36.4219 44.9568 35.9023 44.4524 35.2451C43.9481 34.5727 43.6653 33.8238 43.6042 32.9985H47.4785C47.5244 33.4417 47.7307 33.8009 48.0975 34.076C48.4643 34.3511 48.9151 34.4886 49.4501 34.4886C49.9391 34.4886 50.3136 34.3969 50.5734 34.2135C50.8485 34.0148 50.986 33.7626 50.986 33.457C50.986 33.0902 50.795 32.8227 50.4129 32.6546C50.0308 32.4712 49.4118 32.2725 48.556 32.0586C47.639 31.8446 46.8748 31.623 46.2635 31.3937C45.6521 31.1492 45.1249 30.7748 44.6817 30.2704C44.2384 29.7508 44.0168 29.0554 44.0168 28.1842C44.0168 27.4506 44.2155 26.7858 44.6129 26.1898C45.0255 25.5784 45.6216 25.097 46.401 24.7455C47.1958 24.394 48.1357 24.2182 49.2208 24.2182C50.8256 24.2182 52.0864 24.6156 53.0034 25.4103C53.9357 26.205 54.4706 27.2596 54.6082 28.574H50.986C50.9249 28.1307 50.7262 27.7792 50.39 27.5194C50.069 27.2596 49.6411 27.1297 49.1062 27.1297C48.6477 27.1297 48.2962 27.2214 48.0516 27.4048C47.8071 27.5729 47.6848 27.8098 47.6848 28.1155C47.6848 28.4823 47.8759 28.7574 48.258 28.9408C48.6553 29.1242 49.2667 29.3076 50.092 29.491C51.0395 29.7355 51.8113 29.98 52.4074 30.2246C53.0034 30.4538 53.5231 30.8359 53.9663 31.3708C54.4248 31.8904 54.6617 32.5935 54.677 33.4799C54.677 34.2288 54.463 34.9013 54.0351 35.4973C53.6224 36.0781 53.0187 36.5366 52.224 36.8728C51.4445 37.209 50.5352 37.3772 49.4959 37.3772ZM59.0469 23.072C58.3591 23.072 57.7936 22.8733 57.3504 22.4759C56.9225 22.0633 56.7085 21.5589 56.7085 20.9629C56.7085 20.3515 56.9225 19.8472 57.3504 19.4498C57.7936 19.0372 58.3591 18.8308 59.0469 18.8308C59.7193 18.8308 60.2695 19.0372 60.6975 19.4498C61.1407 19.8472 61.3623 20.3515 61.3623 20.9629C61.3623 21.5589 61.1407 22.0633 60.6975 22.4759C60.2695 22.8733 59.7193 23.072 59.0469 23.072ZM60.9955 24.4016V37.1938H57.0753V24.4016H60.9955ZM68.6965 24.2182C69.5982 24.2182 70.3853 24.4016 71.0578 24.7684C71.7455 25.1352 72.2728 25.6166 72.6396 26.2127V24.4016H76.5598V37.1708C76.5598 38.3476 76.3229 39.4098 75.8491 40.3574C75.3906 41.3203 74.6799 42.0844 73.7171 42.6499C72.7695 43.2154 71.585 43.4981 70.1637 43.4981C68.2686 43.4981 66.7326 43.0473 65.5558 42.1456C64.3789 41.2591 63.7065 40.0517 63.5384 38.5234H67.4127C67.535 39.0125 67.8253 39.3946 68.2838 39.6697C68.7423 39.96 69.3078 40.1052 69.9803 40.1052C70.7903 40.1052 71.4322 39.8683 71.906 39.3946C72.3951 38.9361 72.6396 38.1948 72.6396 37.1708V35.3598C72.2575 35.9558 71.7302 36.4449 71.0578 36.827C70.3853 37.1938 69.5982 37.3772 68.6965 37.3772C67.6419 37.3772 66.6867 37.1097 65.8309 36.5748C64.975 36.0246 64.2949 35.2528 63.7905 34.2594C63.3015 33.2507 63.0569 32.0891 63.0569 30.7748C63.0569 29.4604 63.3015 28.3065 63.7905 27.3131C64.2949 26.3197 64.975 25.5555 65.8309 25.0206C66.6867 24.4857 67.6419 24.2182 68.6965 24.2182ZM72.6396 30.7977C72.6396 29.8195 72.3645 29.0477 71.8143 28.4823C71.2794 27.9168 70.6222 27.634 69.8427 27.634C69.0633 27.634 68.3985 27.9168 67.8483 28.4823C67.3133 29.0325 67.0459 29.7966 67.0459 30.7748C67.0459 31.7529 67.3133 32.5323 67.8483 33.1131C68.3985 33.6786 69.0633 33.9613 69.8427 33.9613C70.6222 33.9613 71.2794 33.6786 71.8143 33.1131C72.3645 32.5476 72.6396 31.7758 72.6396 30.7977ZM87.1903 24.2641C88.6881 24.2641 89.8802 24.7531 90.7666 25.7313C91.6684 26.6941 92.1192 28.0238 92.1192 29.7202V37.1938H88.222V30.2475C88.222 29.3916 88.0004 28.7268 87.5571 28.253C87.1139 27.7792 86.5179 27.5423 85.769 27.5423C85.0201 27.5423 84.4241 27.7792 83.9808 28.253C83.5376 28.7268 83.316 29.3916 83.316 30.2475V37.1938H79.3958V24.4016H83.316V26.0981C83.7134 25.5326 84.2483 25.0894 84.9208 24.7684C85.5932 24.4322 86.3498 24.2641 87.1903 24.2641Z" fill="black"/>
<path d="M104.862 34.3511H98.8552L97.8924 37.1938H93.7888L99.6117 21.1004H104.151L109.974 37.1938H105.824L104.862 34.3511ZM103.853 31.325L101.858 25.4332L99.8868 31.325H103.853ZM122.429 26.1898C122.139 25.6548 121.718 25.2498 121.168 24.9747C120.633 24.6843 119.999 24.5392 119.265 24.5392C117.997 24.5392 116.981 24.9594 116.216 25.8C115.452 26.6253 115.07 27.7334 115.07 29.1242C115.07 30.6066 115.468 31.7682 116.262 32.6088C117.072 33.4341 118.18 33.8467 119.586 33.8467C120.549 33.8467 121.359 33.6022 122.016 33.1131C122.689 32.624 123.178 31.921 123.484 31.004H118.509V28.1155H127.037V31.7605C126.747 32.7387 126.25 33.648 125.547 34.4886C124.859 35.3292 123.98 36.0093 122.911 36.5289C121.841 37.0486 120.633 37.3084 119.288 37.3084C117.699 37.3084 116.278 36.9645 115.024 36.2768C113.786 35.5737 112.816 34.6032 112.113 33.3653C111.425 32.1273 111.081 30.7136 111.081 29.1242C111.081 27.5347 111.425 26.121 112.113 24.883C112.816 23.6298 113.786 22.6593 115.024 21.9716C116.262 21.2685 117.676 20.917 119.265 20.917C121.191 20.917 122.811 21.3831 124.126 22.3154C125.455 23.2477 126.334 24.5392 126.762 26.1898H122.429ZM133.129 24.2411V27.4965H138.378V30.5226H133.129V34.053H139.066V37.1938H129.208V21.1004H139.066V24.2411H133.129ZM156.008 37.1938H152.088L145.531 27.2672V37.1938H141.611V21.1004H145.531L152.088 31.0728V21.1004H156.008V37.1938ZM158.185 29.1242C158.185 27.5347 158.529 26.121 159.217 24.883C159.904 23.6298 160.86 22.6593 162.082 21.9716C163.32 21.2685 164.719 20.917 166.277 20.917C168.188 20.917 169.823 21.4214 171.183 22.4301C172.544 23.4388 173.453 24.8143 173.911 26.5566H169.602C169.281 25.8841 168.822 25.3721 168.226 25.0206C167.645 24.6691 166.981 24.4933 166.232 24.4933C165.024 24.4933 164.046 24.9136 163.297 25.7542C162.548 26.5948 162.174 27.7181 162.174 29.1242C162.174 30.5302 162.548 31.6535 163.297 32.4941C164.046 33.3347 165.024 33.755 166.232 33.755C166.981 33.755 167.645 33.5792 168.226 33.2277C168.822 32.8762 169.281 32.3642 169.602 31.6918H173.911C173.453 33.4341 172.544 34.8096 171.183 35.8183C169.823 36.8117 168.188 37.3084 166.277 37.3084C164.719 37.3084 163.32 36.9645 162.082 36.2768C160.86 35.5737 159.904 34.6032 159.217 33.3653C158.529 32.1273 158.185 30.7136 158.185 29.1242ZM190.113 21.1004L184.542 31.8752V37.1938H180.622V31.8752L175.051 21.1004H179.499L182.617 27.8404L185.711 21.1004H190.113Z" fill="#F55F1D"/>
</svg>
